<svg xmlns="http://www.w3.org/2000/svg" width="1812" height="1280" fill-rule="evenodd" clip-rule="evenodd" image-rendering="optimizeQuality" shape-rendering="geometricPrecision" text-rendering="geometricPrecision">
  <path fill="#0f0b08" d="M762 59c16 3 31 9 45 20l11-15c12-1 23 2 34 10l22 18 29 15c37-30 77-34 120-11 28 25 43 57 44 96 1 17 0 34-1 52 22 29 42 60 59 93 29 13 55 31 77 55 26-63 70-107 133-132 102-41 204-42 307-2 90 42 132 113 124 214-4 26-14 50-29 72-16 18-36 29-59 34l-83 9c-67 21-110 66-129 134v7l79 151c2 3 2 6-1 9l-123 72c-20 42-50 75-90 99l2 74c-6-1-11-3-15-7l15 33c6 14 10 29 12 44-2 24-15 37-39 39-29 3-56-1-82-10l-111-55c-62-26-125-41-191-45-83-3-166-3-249 0-66 5-130 20-190 45-38 18-75 36-111 55-30 10-61 13-91 8-25-6-34-22-30-46 6-26 16-49 30-70-5 1-9 4-11 8-6 2-8 0-8-5-2-29 1-57 8-84l-87 20L50 883c37-74 76-147 117-219 54-1 109-2 165-1-2-32 2-62 11-92l-2-1c-7 5-13 11-19 18l-2-1c-2-83 27-152 86-209 20-16 42-31 65-43 17-34 37-65 60-94-9-42-3-81 17-118a93 93 0 0 1 144-15c26-13 49-30 70-49Z" opacity=".9"/>
  <path fill="#7e624d" d="M764 66c15 5 30 12 43 22 6-4 11-9 15-15 3-2 7-2 11 0 14 8 27 17 40 28l32 16c7-7 16-13 25-19 17-9 36-12 57-8 36 9 58 32 67 69 6 20 8 40 6 62l-3 25c22 26 41 55 58 86l-9-1-30-10c-4 1-4 3-1 5 38 11 72 29 104 53l20 21 1 7c4-1 7 0 10 4 37 47 56 101 59 162-7-8-15-13-25-14-2 0-3 1-2 3 9 25 14 51 13 79-29 0-57 0-85 2l-5-1 11-22c-3-4-5-4-7 0-8 15-14 31-17 49 6 53-18 80-71 80-13-3-22-10-29-21l-8-18c-4-29-11-57-21-84-3-1-5 0-5 3l6 19-95 5 8-58c32 4 63 0 93-14 25-15 37-38 38-67-2-43-19-79-50-107-18-16-38-28-60-38-2-20-11-35-27-45-37-20-75-30-116-29-23-1-45-1-67 1-31 4-60 14-86 30a67 67 0 0 0-26 43c-45 20-78 52-100 97-10 27-10 54-1 82 17 29 42 45 77 47h47c0 21 4 43 11 64l-127 2 1-11c-2-1-4 0-5 1-6 13-10 27-11 42 4 25-4 46-23 63-14 9-29 12-45 9-20-9-32-25-37-45-3-22-8-42-14-62-3-8-7-15-12-22-1-2-3-2-4 0l12 27h-65c-2-35 2-68 13-100l-1-4c-7 0-12 2-17 6-4 2-6 5-9 8 4-76 33-139 87-191 31-26 67-45 108-54l1-7c-14 2-27 7-39 13l-2-2c16-30 35-59 56-85l-2-41c-1-32 8-61 25-87 28-31 61-39 100-24 11 5 21 12 30 21h4c26-12 50-29 70-50Z"/>
  <path fill="#0b0907" d="M618 220c23-3 41 5 55 24 12 22 11 44-2 66-23 24-50 28-79 12a57 57 0 0 1-20-67c8-21 23-33 46-35Z"/>
  <path fill="#0d0a07" d="M959 219c34-3 56 11 67 44 2 51-23 73-74 67-38-18-48-47-31-84 10-14 22-23 38-27Z"/>
  <path fill="#1f1f1f" d="M616 226c19-3 36 3 49 18 9 12 12 27 9 43-10 30-30 42-61 37-32-11-44-33-36-65 6-19 19-30 39-33Zm349 0c25-2 43 9 53 33 7 26-1 46-23 61-27 12-50 6-68-16-11-22-9-42 4-61 9-10 20-16 34-17Z"/>
  <path fill="#7e624d" d="M1461 237c61-4 121 6 179 29 88 41 127 111 118 209-9 58-42 91-100 99-101-1-168 46-199 142-15-27-30-54-43-81-9-2-18-3-27-2l-127 6c0-25-4-48-12-70 0-2 1-3 3-2l19 17h4c0-70-23-131-67-183 22-62 63-106 124-132 41-17 83-28 128-32Z"/>
  <path fill="#424242" d="M752 302c38-1 76 0 114 4 28 4 53 16 74 35 22 38 12 65-28 81-17 3-33 7-49 12-14 8-26 17-36 28-30 13-55 8-75-16-15-10-32-17-49-20-27-2-47-14-59-38-4-22 2-40 19-55 27-17 56-28 89-31Z"/>
  <path fill="#adadad" d="M634 376c1 0 2 0 2 2 6 26 21 43 47 51 32 1 60 13 82 38 9 5 19 8 30 7 23 1 43-8 58-27 10-7 22-12 35-14l27-5c17-6 30-17 38-33l7-19c45 20 77 54 96 101 16 66-10 104-77 113-18 2-35 0-51-5-30-9-59-21-86-36-25-9-51-11-76-5-37 18-74 33-113 44-25 5-49 3-72-6-37-17-52-45-46-85 5-31 18-57 39-78 18-17 38-32 60-43Z"/>
  <path fill="#fcfcfc" d="M783 548h11v188c-2 10-5 21-9 31-18 1-36 0-53-2-5 0-8-2-12-3-21-41-38-83-51-127-3-15-4-30-3-45 33-9 66-22 97-39 6-2 13-4 20-3Z"/>
  <path fill="#666665" d="M794 736V548h-11c0-1 1-2 3-2h10l-2 190Z"/>
  <path fill="#fcfcfc" d="M801 548c11-1 22 0 34 4 29 16 61 29 94 39 0 30-5 60-16 89l-37 81-9 4c-19 2-38 3-57 2l-9-25V548Z"/>
  <path fill="#f0c34e" d="M428 749c-40 8-56 33-48 73 5 13 14 23 28 29l87 23c11 9 12 20 5 33a56 56 0 0 1-43 16c-25-1-40-13-46-36-11-1-22 0-32 3 0 20 8 36 24 48 18 12 38 16 61 14 19-2 38-8 55-18 27-28 29-57 4-87-7-5-14-8-21-10l-77-19c-13-6-16-16-11-28 5-7 12-12 21-14 8-1 17-2 26-1h9c13 5 21 15 24 29l34-5c0-6-1-11-3-16-4-9-9-16-14-23 3-5 8-9 12-13l8-16 3-43c0-7 2-13 5-19 10-1 20 0 30 1l11 272 33-2 1-20c18 19 40 26 66 21 41-13 64-42 68-85 3-29-2-56-16-81l30-2h29l7-23 6 23a554 554 0 0 0 73-5c9-16 17-31 24-47l2 11v212h32c-1-7 0-14 1-20 30 30 63 34 100 10 20-15 33-36 37-61 8-38 1-72-20-103a79 79 0 0 0-97-19c-6 4-11 8-15 13l-1-92h-17c0-5 1-10 4-14l101-2 12 60c13 34 37 46 73 35l19-7 8 13 68 158c1 18-4 34-15 48-13 5-25 7-38 5-1 10 0 20 3 31 35 10 59-2 72-36l79-243c-12-1-24-1-35 1l-48 157-60-147-5-3-12-3 5-13 8-61 225-12c8-1 16 0 25 2l125 239-2 3c-92 56-184 109-278 162a2063 2063 0 0 0-1073 8c-42-57-84-115-124-173 35-70 72-139 110-207a4313 4313 0 0 1 237-1l11 50 10 24v3Z"/>
  <path fill="#5f4e22" d="M650 667h-42a421 421 0 0 0-39 3c-10-1-20-2-30-1a1507 1507 0 0 1 111-2Z"/>
  <path fill="#a68736" d="M608 667c-3 4-4 9-3 14-2-4-3-8-2-12l-24-2h29Z"/>
  <path fill="#efc24e" d="M608 667h42c7-1 15 0 22 1 10 26 21 53 34 79l-18-9c-31-9-58-1-79 23-3-27-4-54-4-80-1-5 0-10 3-14Z"/>
  <path fill="#211f1f" d="M603 669a727 727 0 0 0 7 92 73 73 0 0 1 96-14l-1 1c4 5 7 11 10 18l16 7 1 2c14 25 19 52 16 81-4 43-27 72-68 85-26 5-48-2-66-21l-1 20-33 2-11-272 34-1Z"/>
  <path fill="#21201f" d="m940 672 1 92c4-5 9-9 15-13 36-17 69-11 97 19 21 31 28 65 20 103-4 25-17 46-37 61-37 24-70 20-100-10-1 6-2 13-1 20h-32a6217 6217 0 0 0-1-225l19-43c5-2 11-3 17-2-1 5 0 10 1 15l1-17Z"/>
  <path fill="#201f1e" d="M1132 744c6-4 11-9 15-15l14-1 5 3 60 147 48-157c11-2 23-2 35-1l-79 243c-13 34-37 46-72 36-3-11-4-21-3-31 13 2 25 0 38-5 11-14 16-30 15-48l-68-158-8-13Z"/>
  <path fill="#887032" d="m902 719 1 13-2-11 1-2Z"/>
  <path fill="#211f1f" d="m428 749 17 15c5 3 10 6 17 8-1 1-2 2-1 3-9-1-18 0-26 1-9 2-16 7-21 14-5 12-2 22 11 28l77 19c7 2 14 5 21 10 25 30 23 59-4 87-17 10-36 16-55 18-23 2-43-2-61-14a59 59 0 0 1-24-48c10-3 21-4 32-3 6 23 21 35 46 36 16 0 31-5 43-16 7-13 6-24-5-33l-87-23c-14-6-23-16-28-29-8-40 8-65 48-73Z"/>
  <path fill="#21201f" d="M240 755c35-5 65 6 89 33 12 16 19 34 21 55 3 30-3 59-19 86-29 28-63 38-102 29-27-9-46-27-57-53-13-38-11-75 7-110 15-21 35-35 61-40Z"/>
  <path fill="#21201e" d="M511 760c5 7 10 14 14 23 2 5 3 10 3 16l-34 5c-3-14-11-24-24-29 15-2 28-7 41-15Z"/>
  <path fill="#f0c34e" d="M651 765c31-1 50 13 58 44 6 25 4 49-4 74-11 23-30 32-55 28-15-4-25-13-32-25-10-21-13-42-10-64 2-14 7-27 14-38 8-10 17-16 29-19Zm329 7c17-2 32 3 44 16 11 17 16 35 16 56 1 24-6 46-22 64-31 20-55 15-74-15-14-33-13-66 3-97 8-12 19-20 33-24Z"/>
  <path fill="#b9973d" d="M731 773h31l-30 2-1-2Z"/>
  <path fill="#efc34e" d="M245 785c34-3 57 12 67 46 7 26 4 52-8 77-21 25-46 31-75 16a91 91 0 0 1-25-100c7-20 21-33 41-39Z"/>
  <path fill="#16120b" d="M821 933h-21l-1-6c-1-13-2-25-1-37 14-1 28-2 43-1v44h-20Z"/>
  <path fill="#1f1f1f" d="M805 896h30c-1 10 0 20 2 30h-31c-1-10-2-20-1-30Z"/>
  <path fill="#947831" d="m799 927 1 6h21l-22 1v-7Z"/>
  <path fill="#7a5f4c" d="m1405 967 2 2-6 12c-19 29-44 53-74 71l-8-25c-1-4 0-7 1-10l85-50Z"/>
  <path fill="#adadad" d="M683 985a2181 2181 0 0 1 445 40v10l-1 1c-7-4-13-7-20-8 18 47 22 94 12 144a643 643 0 0 0-226-49H687c-73 4-143 20-210 49-9-40-8-79 2-118l10-23-3-3-19 8c-2-12-1-23 2-34 71-10 142-15 214-17Z"/>
  <path fill="#7e624d" d="M455 1004h6l1 5c-2 12-3 24-2 37l2 1c4-5 10-7 17-6-12 26-16 54-14 84 1 14 2 29 5 44l-1 5-95 49c-32 12-64 15-97 8-8-4-14-9-18-16-2-14 0-27 4-39l35-71c-2-4-4-4-7-2l-21 18c-2-28 1-55 9-81 16-6 33-10 50-14l126-22Zm857 19 3 4c4 19 8 39 10 60 1 11 1 22-1 33-7-8-15-13-24-17l-1 1 7 19 22 44c6 14 9 28 9 44-2 6-6 12-11 16-22 9-44 11-66 7-13-2-25-5-36-10l-96-48c-2-14-2-28 2-41 2-27 0-54-7-79l-5-14c-1-2 0-3 1-4l15 9 3-22c40 7 81 16 121 27l54-29Z"/>
</svg>
