<svg width="43" height="43" viewBox="0 0 43 43" fill="none" xmlns="http://www.w3.org/2000/svg">
<path d="M42.9784 14.46L41.1752 24.805C40.9528 25.9477 40.0423 26.6426 38.9923 26.6556H12.7029L12.181 29.5978H37.2366C38.5559 29.698 39.4508 30.6326 39.4669 31.828C39.3709 33.1446 38.4364 34.042 37.2366 34.0584H9.52353C8.02473 33.9236 7.13101 32.7288 7.29319 31.401L8.47952 24.9472L6.67628 6.81987L1.55129 5.20654C0.298882 4.70928 -0.21228 3.57631 0.0802271 2.40678C0.566593 1.18791 1.732 0.631022 2.87999 0.935712L9.42861 3.02369C10.3108 3.35439 10.8183 4.07654 10.9471 4.92185L11.3267 8.52833L41.0328 11.8501C42.3977 12.1457 43.1387 13.2269 42.9784 14.46V14.46ZM16.3139 38.7414C16.3139 40.6218 14.7896 42.1462 12.9091 42.1462C11.0287 42.1462 9.50432 40.6218 9.50432 38.7414C9.50432 36.8609 11.0287 35.3365 12.9091 35.3365C14.7895 35.3366 16.3139 36.861 16.3139 38.7414ZM36.6404 38.7414C36.6404 40.6218 35.1161 42.1462 33.2356 42.1462C31.3552 42.1462 29.8308 40.6218 29.8308 38.7414C29.8308 36.8609 31.3552 35.3365 33.2356 35.3365C35.1161 35.3366 36.6404 36.861 36.6404 38.7414Z" fill="#F3C650"/>
</svg>
