<svg width="43" height="43" viewBox="0 0 43 43" fill="none" xmlns="http://www.w3.org/2000/svg">
<path d="M0 10.75C0 9.32446 0.566293 7.95731 1.5743 6.9493C2.58231 5.94129 3.94946 5.375 5.375 5.375H37.625C39.0505 5.375 40.4177 5.94129 41.4257 6.9493C42.4337 7.95731 43 9.32446 43 10.75V13.4375H0V10.75ZM0 18.8125V32.25C0 33.6755 0.566293 35.0427 1.5743 36.0507C2.58231 37.0587 3.94946 37.625 5.375 37.625H37.625C39.0505 37.625 40.4177 37.0587 41.4257 36.0507C42.4337 35.0427 43 33.6755 43 32.25V18.8125H0ZM8.0625 24.1875H10.75C11.4628 24.1875 12.1463 24.4706 12.6503 24.9747C13.1544 25.4787 13.4375 26.1622 13.4375 26.875V29.5625C13.4375 30.2753 13.1544 30.9588 12.6503 31.4628C12.1463 31.9669 11.4628 32.25 10.75 32.25H8.0625C7.34973 32.25 6.66615 31.9669 6.16215 31.4628C5.65815 30.9588 5.375 30.2753 5.375 29.5625V26.875C5.375 26.1622 5.65815 25.4787 6.16215 24.9747C6.66615 24.4706 7.34973 24.1875 8.0625 24.1875V24.1875Z" fill="#F3C650"/>
</svg>
