<svg width="43" height="43" viewBox="0 0 43 43" fill="none" xmlns="http://www.w3.org/2000/svg">
<path d="M5.375 7.16663C4.42464 7.16663 3.51321 7.54415 2.8412 8.21616C2.1692 8.88817 1.79167 9.7996 1.79167 10.75V30.4583H5.375C5.375 31.8838 5.94129 33.251 6.9493 34.259C7.95731 35.267 9.32446 35.8333 10.75 35.8333C12.1755 35.8333 13.5427 35.267 14.5507 34.259C15.5587 33.251 16.125 31.8838 16.125 30.4583H26.875C26.875 31.8838 27.4413 33.251 28.4493 34.259C29.4573 35.267 30.8245 35.8333 32.25 35.8333C33.6755 35.8333 35.0427 35.267 36.0507 34.259C37.0587 33.251 37.625 31.8838 37.625 30.4583H41.2083V21.5L35.8333 14.3333H30.4583V7.16663H5.375ZM17.9167 10.75L25.0833 17.9166L17.9167 25.0833V19.7083H7.16667V16.125H17.9167V10.75ZM30.4583 17.0208H34.9375L38.4671 21.5H30.4583V17.0208ZM10.75 27.7708C11.4628 27.7708 12.1463 28.0539 12.6504 28.5579C13.1544 29.0619 13.4375 29.7455 13.4375 30.4583C13.4375 31.1711 13.1544 31.8546 12.6504 32.3586C12.1463 32.8626 11.4628 33.1458 10.75 33.1458C10.0372 33.1458 9.35366 32.8626 8.84965 32.3586C8.34565 31.8546 8.0625 31.1711 8.0625 30.4583C8.0625 29.7455 8.34565 29.0619 8.84965 28.5579C9.35366 28.0539 10.0372 27.7708 10.75 27.7708V27.7708ZM32.25 27.7708C32.9628 27.7708 33.6463 28.0539 34.1504 28.5579C34.6544 29.0619 34.9375 29.7455 34.9375 30.4583C34.9375 31.1711 34.6544 31.8546 34.1504 32.3586C33.6463 32.8626 32.9628 33.1458 32.25 33.1458C31.5372 33.1458 30.8537 32.8626 30.3497 32.3586C29.8457 31.8546 29.5625 31.1711 29.5625 30.4583C29.5625 29.7455 29.8457 29.0619 30.3497 28.5579C30.8537 28.0539 31.5372 27.7708 32.25 27.7708Z" fill="#F3C650"/>
</svg>
