<svg width="13" height="13" viewBox="0 0 13 13" fill="none" xmlns="http://www.w3.org/2000/svg">
<path d="M4.75519 6.41686C4.95946 6.71246 4.8984 6.46615 4.8984 12.3582C4.8984 12.8855 5.49995 13.1872 5.92392 12.8718C7.73562 11.5059 8.09759 11.3876 8.09759 10.7487C8.09759 6.45505 8.04754 6.69651 8.24079 6.41686L11.1828 2.4123H1.81323L4.75519 6.41686Z" fill="#F3C650"/>
<path d="M12.2943 0.326514C12.1892 0.125166 11.983 -9.53674e-06 11.7561 -9.53674e-06H1.24039C0.750229 -9.53674e-06 0.461816 0.552922 0.742992 0.954678C0.745303 0.958537 0.711076 0.911692 1.25385 1.65038H11.7426C12.2051 1.02087 12.5143 0.748887 12.2943 0.326514Z" fill="#F3C650"/>
</svg>
