<svg width="16" height="16" viewBox="0 0 16 16" fill="none" xmlns="http://www.w3.org/2000/svg">
<path d="M0.800049 2.33332C0.800049 1.92666 0.961593 1.53664 1.24915 1.24909C1.5367 0.961532 1.92672 0.799988 2.33338 0.799988H4.84805C5.00889 0.800108 5.16562 0.850812 5.29606 0.944924C5.42649 1.03904 5.52403 1.17179 5.57485 1.32439L6.72331 4.76902C6.78151 4.94408 6.77463 5.13425 6.70393 5.30465C6.63324 5.47504 6.50347 5.61424 6.33845 5.69668L4.60808 6.56302C5.45626 8.44023 6.9598 9.94375 8.83701 10.792L9.70333 9.06159C9.78581 8.89655 9.92501 8.76679 10.0954 8.69607C10.2658 8.62543 10.456 8.61855 10.631 8.67671L14.0756 9.82519C14.2284 9.87607 14.3612 9.97367 14.4553 10.1043C14.5495 10.2349 14.6 10.3917 14.6 10.5528V13.0666C14.6 13.4733 14.4385 13.8633 14.1509 14.1509C13.8634 14.4385 13.4734 14.6 13.0667 14.6H12.3C5.94898 14.6 0.800049 9.45103 0.800049 3.09999V2.33332Z" stroke="#F3C650" stroke-width="2" stroke-linecap="round" stroke-linejoin="round"/>
</svg>
