<svg width="69" height="56" viewBox="0 0 69 56" fill="none" xmlns="http://www.w3.org/2000/svg">
<path d="M37.95 24.0491C38.865 24.0491 39.7425 24.411 40.3895 25.0553C41.0365 25.6996 41.4 26.5735 41.4 27.4847C41.4 28.3958 41.0365 29.2697 40.3895 29.914C39.7425 30.5583 38.865 30.9202 37.95 30.9202C37.035 30.9202 36.1575 30.5583 35.5105 29.914C34.8635 29.2697 34.5 28.3958 34.5 27.4847C34.5 26.5735 34.8635 25.6996 35.5105 25.0553C36.1575 24.411 37.035 24.0491 37.95 24.0491V24.0491ZM20.217 7.73006C22.4772 5.2928 25.2195 3.34779 28.2713 2.01744C31.3232 0.687093 34.6185 0.000202935 37.95 0C50.025 0 60.168 8.96687 61.8585 20.6135H69V27.4847H48.3C48.3 24.7511 47.2096 22.1296 45.2686 20.1967C43.3276 18.2638 40.695 17.1779 37.95 17.1779C35.205 17.1779 32.5724 18.2638 30.6314 20.1967C28.6904 22.1296 27.6 24.7511 27.6 27.4847H0V20.6135H0.1725C0.8625 12.8147 3.933 5.70307 8.625 0L20.217 7.73006V7.73006ZM16.3185 13.3644L10.557 9.51656C8.7285 12.8834 7.521 16.6282 7.107 20.6135H14.0415C14.421 18.0368 15.18 15.5975 16.3185 13.3644V13.3644ZM18.63 39.1656L13.8 34.3558H33.7755C34.6035 35.7988 36.225 36.7607 37.95 36.7607C39.675 36.7607 41.2965 35.7988 42.1245 34.3558H62.1V39.1656C56.5455 35.7988 56.787 40.3681 56.787 40.3681V47.1018L50.025 53.8356C48.3 47.8233 45.195 51.1902 45.195 51.1902L40.365 56H30.705C34.086 50.4687 29.4975 50.7092 29.4975 50.7092H22.7355L15.9735 43.9755C22.011 42.292 18.63 39.1656 18.63 39.1656V39.1656Z" fill="#F3C650"/>
</svg>
