<svg width="100" height="100" viewBox="0 0 100 100" fill="none" xmlns="http://www.w3.org/2000/svg">
<g clip-path="url(#clip0_126_4)">
<path d="M50.049 9.51C49.4202 9.50652 48.7965 9.57195 48.2144 9.70245C47.6322 9.83295 47.1035 10.0259 46.659 10.27L1.38197 35.115C0.942959 35.3558 0.5947 35.6417 0.357094 35.9564C0.119489 36.2711 -0.00280762 36.6084 -0.00280762 36.949C-0.00280762 37.2896 0.119489 37.6269 0.357094 37.9416C0.5947 38.2563 0.942959 38.5422 1.38197 38.783L46.658 63.63C47.0968 63.8709 47.6178 64.0621 48.1912 64.1925C48.7646 64.3229 49.3793 64.39 50 64.39C50.6207 64.39 51.2353 64.3229 51.8088 64.1925C52.3822 64.0621 52.9032 63.8709 53.342 63.63L98.617 38.784C99.056 38.5432 99.4042 38.2573 99.6419 37.9426C99.8795 37.6279 100.002 37.2906 100.002 36.95C100.002 36.6094 99.8795 36.2721 99.6419 35.9574C99.4042 35.6427 99.056 35.3568 98.617 35.116L53.342 10.27C52.4678 9.78994 51.2856 9.51709 50.049 9.51V9.51ZM4.72697 46.332L1.38297 48.166C0.943959 48.4068 0.5957 48.6927 0.358094 49.0074C0.120489 49.3221 -0.00180762 49.6594 -0.00180762 50C-0.00180762 50.3406 0.120489 50.6779 0.358094 50.9926C0.5957 51.3073 0.943959 51.5932 1.38297 51.834L46.658 76.68C47.0968 76.9209 47.6178 77.1121 48.1912 77.2425C48.7646 77.3729 49.3793 77.44 50 77.44C50.6207 77.44 51.2353 77.3729 51.8088 77.2425C52.3822 77.1121 52.9032 76.9209 53.342 76.68L98.617 51.834C99.0559 51.5931 99.404 51.3072 99.6414 50.9924C99.8788 50.6777 100.001 50.3404 100.001 49.9998C100.001 49.6591 99.8781 49.3219 99.6403 49.0072C99.4025 48.6926 99.0541 48.4067 98.615 48.166L95.273 46.332L88.59 49.998L88.594 50L50 71.18L11.404 50L11.408 49.998L4.72697 46.332V46.332ZM4.72697 59.382L1.38297 61.217C0.943959 61.4578 0.5957 61.7437 0.358094 62.0584C0.120489 62.3731 -0.00180762 62.7104 -0.00180762 63.051C-0.00180762 63.3916 0.120489 63.7289 0.358094 64.0436C0.5957 64.3583 0.943959 64.6442 1.38297 64.885L46.658 89.73C47.0968 89.9709 47.6178 90.1621 48.1912 90.2925C48.7646 90.4229 49.3793 90.49 50 90.49C50.6207 90.49 51.2353 90.4229 51.8088 90.2925C52.3822 90.1621 52.9032 89.9709 53.342 89.73L98.617 64.885C99.0559 64.6441 99.404 64.3582 99.6414 64.0434C99.8788 63.7287 100.001 63.3914 100.001 63.0508C100.001 62.7101 99.8781 62.3729 99.6403 62.0582C99.4025 61.7436 99.0541 61.4577 98.615 61.217L95.273 59.383L88.59 63.049L88.594 63.051L50 84.23L11.404 63.05L11.408 63.048L4.72697 59.382V59.382Z" fill="#F3C650"/>
</g>
<defs>
<clipPath id="clip0_126_4">
<rect width="100" height="100" fill="white"/>
</clipPath>
</defs>
</svg>
